<svg width="687" height="146" viewBox="0 0 687 146" fill="none" xmlns="http://www.w3.org/2000/svg">
<path d="M172 129.474V71.9198H195.652C200.744 71.9198 205.096 72.742 208.71 74.3864C212.378 76.0308 215.198 78.3878 217.169 81.4573C219.14 84.5269 220.125 88.172 220.125 92.3926C220.125 96.6132 219.14 100.258 217.169 103.328C215.198 106.397 212.378 108.754 208.71 110.399C205.096 112.043 200.744 112.865 195.652 112.865H177.913L182.676 107.85V129.474H172ZM182.676 109.001L177.913 103.821H195.159C199.868 103.821 203.399 102.835 205.753 100.861C208.162 98.8332 209.367 96.0103 209.367 92.3926C209.367 88.7201 208.162 85.8972 205.753 83.9239C203.399 81.9507 199.868 80.964 195.159 80.964H177.913L182.676 75.702V109.001Z" fill="white"/>
<path d="M249.351 130.049C244.861 130.049 240.865 129.09 237.361 127.172C233.857 125.198 231.092 122.512 229.066 119.114C227.04 115.716 226.027 111.851 226.027 107.521C226.027 103.136 227.04 99.2717 229.066 95.9281C231.092 92.5296 233.857 89.8712 237.361 87.9527C240.865 86.0343 244.861 85.075 249.351 85.075C253.895 85.075 257.919 86.0343 261.423 87.9527C264.982 89.8712 267.747 92.5022 269.718 95.8458C271.743 99.1894 272.756 103.081 272.756 107.521C272.756 111.851 271.743 115.716 269.718 119.114C267.747 122.512 264.982 125.198 261.423 127.172C257.919 129.09 253.895 130.049 249.351 130.049ZM249.351 121.252C251.869 121.252 254.114 120.704 256.085 119.607C258.056 118.511 259.589 116.922 260.684 114.839C261.834 112.756 262.409 110.317 262.409 107.521C262.409 104.671 261.834 102.232 260.684 100.203C259.589 98.1206 258.056 96.531 256.085 95.4347C254.114 94.3385 251.897 93.7903 249.433 93.7903C246.914 93.7903 244.67 94.3385 242.699 95.4347C240.782 96.531 239.249 98.1206 238.1 100.203C236.95 102.232 236.375 104.671 236.375 107.521C236.375 110.317 236.95 112.756 238.1 114.839C239.249 116.922 240.782 118.511 242.699 119.607C244.67 120.704 246.887 121.252 249.351 121.252Z" fill="white"/>
<path d="M282.573 129.474V68.4666H292.838V129.474H282.573Z" fill="white"/>
<path d="M306.312 129.474V85.5683H316.578V129.474H306.312ZM311.486 78.333C309.57 78.333 307.982 77.73 306.723 76.5241C305.518 75.3183 304.916 73.8657 304.916 72.1665C304.916 70.4125 305.518 68.9599 306.723 67.8088C307.982 66.6029 309.57 66 311.486 66C313.402 66 314.963 66.5755 316.167 67.7266C317.426 68.8229 318.056 70.2206 318.056 71.9198C318.056 73.7287 317.454 75.2634 316.249 76.5241C315.045 77.73 313.457 78.333 311.486 78.333Z" fill="white"/>
<path d="M350.172 130.049C345.573 130.049 341.467 129.09 337.853 127.172C334.294 125.198 331.502 122.512 329.476 119.114C327.451 115.716 326.438 111.851 326.438 107.521C326.438 103.136 327.451 99.2717 329.476 95.9281C331.502 92.5296 334.294 89.8712 337.853 87.9527C341.467 86.0343 345.573 85.075 350.172 85.075C354.442 85.075 358.193 85.952 361.423 87.7061C364.708 89.4053 367.199 91.9267 368.896 95.2703L361.012 99.8746C359.698 97.7917 358.083 96.2569 356.167 95.2703C354.305 94.2837 352.28 93.7903 350.09 93.7903C347.571 93.7903 345.299 94.3385 343.273 95.4347C341.248 96.531 339.66 98.1206 338.51 100.203C337.36 102.232 336.786 104.671 336.786 107.521C336.786 110.371 337.36 112.838 338.51 114.921C339.66 116.949 341.248 118.511 343.273 119.607C345.299 120.704 347.571 121.252 350.09 121.252C352.28 121.252 354.305 120.758 356.167 119.772C358.083 118.785 359.698 117.25 361.012 115.168L368.896 119.772C367.199 123.061 364.708 125.609 361.423 127.418C358.193 129.172 354.442 130.049 350.172 130.049Z" fill="white"/>
<path d="M380.822 146C378.687 146 376.552 145.644 374.417 144.931C372.281 144.219 370.502 143.232 369.079 141.971L373.185 134.407C374.225 135.339 375.402 136.079 376.716 136.627C378.03 137.175 379.372 137.449 380.74 137.449C382.602 137.449 384.107 136.983 385.257 136.051C386.407 135.12 387.475 133.557 388.46 131.365L391.006 125.609L391.827 124.376L408.416 85.5683H418.271L397.74 133.009C396.371 136.298 394.838 138.902 393.141 140.82C391.499 142.739 389.637 144.082 387.557 144.849C385.531 145.616 383.286 146 380.822 146ZM389.856 131.036L370.064 85.5683H380.74L396.837 123.472L389.856 131.036Z" fill="white"/>
<path d="M434.929 129.474V80.964H415.876V71.9198H464.658V80.964H445.605V129.474H434.929Z" fill="white"/>
<path d="M470.642 129.474V85.5683H480.415V97.6547L479.265 94.1192C480.579 91.1593 482.632 88.912 485.424 87.3772C488.271 85.8424 491.803 85.075 496.019 85.075V94.8592C495.581 94.7496 495.17 94.6948 494.787 94.6948C494.403 94.6399 494.02 94.6125 493.637 94.6125C489.75 94.6125 486.656 95.7636 484.357 98.0658C482.057 100.313 480.908 103.684 480.908 108.179V129.474H470.642Z" fill="white"/>
<path d="M528.618 129.474V120.594L528.043 118.703V103.163C528.043 100.149 527.14 97.8191 525.333 96.1747C523.527 94.4755 520.789 93.6259 517.121 93.6259C514.657 93.6259 512.221 94.0096 509.812 94.777C507.457 95.5444 505.459 96.6132 503.817 97.9836L499.792 90.5015C502.147 88.6927 504.939 87.3498 508.169 86.4728C511.454 85.5409 514.849 85.075 518.353 85.075C524.704 85.075 529.604 86.6098 533.053 89.6793C536.557 92.6941 538.309 97.3806 538.309 103.739V129.474H528.618ZM514.821 130.049C511.536 130.049 508.662 129.501 506.198 128.405C503.734 127.254 501.818 125.692 500.449 123.718C499.135 121.69 498.478 119.416 498.478 116.894C498.478 114.428 499.053 112.208 500.203 110.234C501.408 108.261 503.351 106.699 506.034 105.548C508.717 104.397 512.275 103.821 516.71 103.821H529.44V110.645H517.449C513.945 110.645 511.591 111.221 510.387 112.372C509.182 113.468 508.58 114.839 508.58 116.483C508.58 118.347 509.319 119.827 510.797 120.923C512.275 122.019 514.329 122.567 516.957 122.567C519.475 122.567 521.72 121.992 523.691 120.841C525.717 119.69 527.167 117.99 528.043 115.743L529.768 121.91C528.783 124.486 527.003 126.486 524.43 127.912C521.911 129.337 518.709 130.049 514.821 130.049Z" fill="white"/>
<path d="M571.684 130.049C567.085 130.049 562.979 129.09 559.366 127.172C555.807 125.198 553.015 122.512 550.989 119.114C548.963 115.716 547.95 111.851 547.95 107.521C547.95 103.136 548.963 99.2717 550.989 95.9281C553.015 92.5296 555.807 89.8712 559.366 87.9527C562.979 86.0343 567.085 85.075 571.684 85.075C575.955 85.075 579.705 85.952 582.936 87.7061C586.221 89.4053 588.712 91.9267 590.409 95.2703L582.525 99.8746C581.211 97.7917 579.596 96.2569 577.68 95.2703C575.818 94.2837 573.792 93.7903 571.602 93.7903C569.084 93.7903 566.812 94.3385 564.786 95.4347C562.76 96.531 561.172 98.1206 560.023 100.203C558.873 102.232 558.298 104.671 558.298 107.521C558.298 110.371 558.873 112.838 560.023 114.921C561.172 116.949 562.76 118.511 564.786 119.607C566.812 120.704 569.084 121.252 571.602 121.252C573.792 121.252 575.818 120.758 577.68 119.772C579.596 118.785 581.211 117.25 582.525 115.168L590.409 119.772C588.712 123.061 586.221 125.609 582.936 127.418C579.705 129.172 575.955 130.049 571.684 130.049Z" fill="white"/>
<path d="M607.259 119.69L607.505 106.781L630.418 85.5683H642.737L623.273 105.137L617.853 109.659L607.259 119.69ZM598.882 129.474V68.4666H609.148V129.474H598.882ZM631.978 129.474L615.964 109.659L622.452 101.437L644.461 129.474H631.978Z" fill="white"/>
<path d="M677.309 129.474V120.594L676.734 118.703V103.163C676.734 100.149 675.831 97.8191 674.024 96.1747C672.218 94.4755 669.48 93.6259 665.812 93.6259C663.348 93.6259 660.912 94.0096 658.503 94.777C656.148 95.5444 654.15 96.6132 652.508 97.9836L648.483 90.5015C650.838 88.6927 653.63 87.3498 656.86 86.4728C660.145 85.5409 663.54 85.075 667.044 85.075C673.395 85.075 678.295 86.6098 681.744 89.6793C685.248 92.6941 687 97.3806 687 103.739V129.474H677.309ZM663.512 130.049C660.227 130.049 657.353 129.501 654.889 128.405C652.425 127.254 650.509 125.692 649.14 123.718C647.826 121.69 647.169 119.416 647.169 116.894C647.169 114.428 647.744 112.208 648.894 110.234C650.099 108.261 652.042 106.699 654.725 105.548C657.408 104.397 660.966 103.821 665.401 103.821H678.13V110.645H666.14C662.636 110.645 660.282 111.221 659.078 112.372C657.873 113.468 657.271 114.839 657.271 116.483C657.271 118.347 658.01 119.827 659.488 120.923C660.966 122.019 663.02 122.567 665.648 122.567C668.166 122.567 670.411 121.992 672.382 120.841C674.408 119.69 675.858 117.99 676.734 115.743L678.459 121.91C677.473 124.486 675.694 126.486 673.121 127.912C670.602 129.337 667.4 130.049 663.512 130.049Z" fill="white"/>
<path d="M152.42 132L76.2102 0L0 132H31.1769L76.2102 54L121.244 132H152.42Z" fill="white"/>
<path d="M109.973 132L76.4863 74L43 132H56.6989L76.4863 97.7273L96.2737 132H109.973Z" fill="white"/>
</svg>
